<svg xmlns="http://www.w3.org/2000/svg" width="413" height="92" viewBox="0 0 413 92"><g transform="translate(-195 -110)"><text transform="translate(317 171)" fill="#1f2326" font-size="61" font-family="Modak" letter-spacing="0.05em"><tspan x="0" y="0">THE CHAT</tspan></text><g transform="translate(195 112)"><path d="M231.4,54.362a24.933,24.933,0,0,0,7.313-17.428C238.717,22.058,223.782,10,206.781,10S176,22.058,176,36.934l30.781,26.934a40.816,40.816,0,0,0,13.892-2.407,19.184,19.184,0,0,0,14.2,6.255A13.6,13.6,0,0,1,231.4,54.362Zm0,0" transform="translate(-142.141 -8.076)" fill="#f2cb05"/><path d="M57.8,153.848c8.941,4.713,14.919,13.288,14.919,23.086,0,14.875-13.78,26.934-30.781,26.934a40.816,40.816,0,0,1-13.892-2.407,19.184,19.184,0,0,1-14.2,6.255,13.6,13.6,0,0,0,3.465-13.353A24.933,24.933,0,0,1,10,176.934C10,162.059,24.934,150,41.936,150A33.979,33.979,0,0,1,57.8,153.848Zm0,0" transform="translate(-8.076 -121.143)" fill="#7ba1a6"/><path d="M247.924,100a1.924,1.924,0,1,0,1.924,1.924A1.925,1.925,0,0,0,247.924,100Zm0,0" transform="translate(-198.674 -80.762)"/><path d="M81.924,263.848A1.924,1.924,0,1,0,80,261.924,1.925,1.925,0,0,0,81.924,263.848Zm0,0" transform="translate(-64.609 -209.98)"/><path d="M64.641,0C47.321,0,33.106,11.941,32.006,26.982,15.512,27.81,0,39.7,0,55.791a26.883,26.883,0,0,0,7.5,18.4A11.7,11.7,0,0,1,4.411,85.212,1.924,1.924,0,0,0,5.771,88.5a21.221,21.221,0,0,0,14.7-5.943,43.841,43.841,0,0,0,13.385,2.1c17.317,0,31.531-11.938,32.634-26.976A43.26,43.26,0,0,0,78.026,55.62a21.221,21.221,0,0,0,14.7,5.943,1.924,1.924,0,0,0,1.36-3.284A11.7,11.7,0,0,1,91,47.256a26.883,26.883,0,0,0,7.5-18.4C98.5,12.142,81.794,0,64.641,0ZM33.859,80.8a38.891,38.891,0,0,1-13.18-2.27,1.924,1.924,0,0,0-2.131.488,17.359,17.359,0,0,1-8.634,5.124,15.558,15.558,0,0,0,1.173-11.451,1.92,1.92,0,0,0-.47-.813A23.119,23.119,0,0,1,3.848,55.791c0-13.557,13.743-25.01,30.012-25.01,15.362,0,28.857,10.683,28.857,25.01C62.717,69.582,49.772,80.8,33.859,80.8ZM87.884,44.945a1.929,1.929,0,0,0-.47.813,15.558,15.558,0,0,0,1.173,11.451,17.353,17.353,0,0,1-8.634-5.124,1.925,1.925,0,0,0-2.131-.488,37.9,37.9,0,0,1-11.334,2.222,27.537,27.537,0,0,0-10.4-19.19H81.186a1.924,1.924,0,0,0,0-3.848h-31A35.88,35.88,0,0,0,35.864,26.99C36.969,14.069,49.454,3.848,64.641,3.848c16.268,0,30.012,11.453,30.012,25.01A23.119,23.119,0,0,1,87.884,44.945Zm0,0"/><path d="M146.164,260h-24.24a1.924,1.924,0,0,0,0,3.848h24.24a1.924,1.924,0,0,0,0-3.848Zm0,0" transform="translate(-96.914 -209.98)"/><path d="M113.859,320H81.924a1.924,1.924,0,0,0,0,3.848h31.936a1.924,1.924,0,0,0,0-3.848Zm0,0" transform="translate(-64.609 -258.438)"/><path d="M312.164,100h-24.24a1.924,1.924,0,0,0,0,3.848h24.24a1.924,1.924,0,0,0,0-3.848Zm0,0" transform="translate(-230.979 -80.762)"/></g></g></svg>