<svg xmlns="http://www.w3.org/2000/svg" width="13" height="13" viewBox="0 0 13 13"><path
  d="M2.641,5.688H.609A.609.609,0,0,0,0,6.3v6.094A.609.609,0,0,0,.609,13H2.641a.609.609,0,0,0,.609-.609V6.3A.609.609,0,0,0,2.641,5.688Zm-1.016,6.3a.609.609,0,1,1,.609-.609A.609.609,0,0,1,1.625,11.984ZM9.75,2.068c0,1.077-.659,1.681-.845,2.4h2.583A1.517,1.517,0,0,1,13,5.944a1.838,1.838,0,0,1-.494,1.249l0,0a2.121,2.121,0,0,1-.236,2.018,2.008,2.008,0,0,1-.416,1.9,1.348,1.348,0,0,1-.156,1.133c-.518.745-1.8.755-2.889.755H8.734A7.289,7.289,0,0,1,5.7,12.194a4,4,0,0,0-1.337-.411.3.3,0,0,1-.3-.3V6.051a.3.3,0,0,1,.09-.216c1.006-.994,1.438-2.046,2.263-2.872a3.075,3.075,0,0,0,.645-1.5C7.173,1,7.409,0,7.922,0,8.531,0,9.75.2,9.75,2.068Z"
  fill="#7ba1a6"/></svg>
